HIERARCHY
ROOT Root
{
  OFFSET 0.0 0.0 0.0
  CHANNELS 6 Xposition Yposition Zposition Zrotation Yrotation Xrotation
  JOINT Hips
  {
    OFFSET 0.0 100.0 0.0
    CHANNELS 6 Xposition Yposition Zposition Zrotation Yrotation Xrotation
    JOINT Spine1
    {
      OFFSET 5.003913 -0.037094 -0.013727
      CHANNELS 3 Zrotation Yrotation Xrotation
      JOINT Spine2
      {
        OFFSET 7.125363 -1e-06 0.0
        CHANNELS 3 Zrotation Yrotation Xrotation
        JOINT Chest
        {
          OFFSET 7.594027 1e-06 0.0
          CHANNELS 3 Zrotation Yrotation Xrotation
          JOINT Neck1
          {
            OFFSET 26.313086 -0.460272 -0.181672
            CHANNELS 3 Zrotation Yrotation Xrotation
            JOINT Neck2
            {
              OFFSET 8.045911 0.0 0.0
              CHANNELS 3 Zrotation Yrotation Xrotation
              JOINT Head
              {
                OFFSET 6.432774 0.0 0.0
                CHANNELS 3 Zrotation Yrotation Xrotation
                JOINT HeadEnd
                {
                  OFFSET 16.169773 0.06451 0.00362
                  CHANNELS 3 Zrotation Yrotation Xrotation
                }
                JOINT Jaw
                {
                  OFFSET 0.108741 3.12938 0.002639
                  CHANNELS 3 Zrotation Yrotation Xrotation
                }
                JOINT LeftEye
                {
                  OFFSET 4.45173 8.166359 3.206392
                  CHANNELS 3 Zrotation Yrotation Xrotation
                }
                JOINT RightEye
                {
                  OFFSET 4.436895 8.135758 -3.222429
                  CHANNELS 3 Zrotation Yrotation Xrotation
                }
              }
            }
          }
          JOINT LeftShoulder
          {
            OFFSET 23.218927 5.195579 1.621656
            CHANNELS 3 Zrotation Yrotation Xrotation
            JOINT LeftArm
            {
              OFFSET 15.902118 2e-06 -2e-06
              CHANNELS 3 Zrotation Yrotation Xrotation
              JOINT LeftForeArm
              {
                OFFSET 28.739307 0.0 -1e-06
                CHANNELS 3 Zrotation Yrotation Xrotation
                JOINT LeftHand
                {
                  OFFSET 27.093981 -4e-06 0.0
                  CHANNELS 3 Zrotation Yrotation Xrotation
                  JOINT LeftHandThumb1
                  {
                    OFFSET 2.276781 3.380274 0.83384
                    CHANNELS 3 Zrotation Yrotation Xrotation
                    JOINT LeftHandThumb2
                    {
                      OFFSET 4.705309 -1e-06 -1e-06
                      CHANNELS 3 Zrotation Yrotation Xrotation
                      JOINT LeftHandThumb3
                      {
                        OFFSET 2.798515 0.0 3e-06
                        CHANNELS 3 Zrotation Yrotation Xrotation
                        JOINT LeftHandThumbEnd
                        {
                          OFFSET 3.180793 4e-06 -4e-06
                          CHANNELS 3 Zrotation Yrotation Xrotation
                        }
                      }
                    }
                  }
                  JOINT LeftHandIndex1
                  {
                    OFFSET 3.247786 2.352677 0.137192
                    CHANNELS 3 Zrotation Yrotation Xrotation
                    JOINT LeftHandIndex2
                    {
                      OFFSET 6.367095 1e-06 0.0
                      CHANNELS 3 Zrotation Yrotation Xrotation
                      JOINT LeftHandIndex3
                      {
                        OFFSET 3.662364 0.0 0.0
                        CHANNELS 3 Zrotation Yrotation Xrotation
                        JOINT LeftHandIndex4
                        {
                          OFFSET 2.329242 4e-06 -4e-06
                          CHANNELS 3 Zrotation Yrotation Xrotation
                          JOINT LeftHandIndexEnd
                          {
                            OFFSET 2.767823 1e-06 0.0
                            CHANNELS 3 Zrotation Yrotation Xrotation
                          }
                        }
                      }
                    }
                  }
                  JOINT LeftHandMiddle1
                  {
                    OFFSET 3.163612 0.945023 -0.406112
                    CHANNELS 3 Zrotation Yrotation Xrotation
                    JOINT LeftHandMiddle2
                    {
                      OFFSET 6.276789 3e-06 0.0
                      CHANNELS 3 Zrotation Yrotation Xrotation
                      JOINT LeftHandMiddle3
                      {
                        OFFSET 4.35652 -1e-06 4e-06
                        CHANNELS 3 Zrotation Yrotation Xrotation
                        JOINT LeftHandMiddle4
                        {
                          OFFSET 2.996877 0.0 8e-06
                          CHANNELS 3 Zrotation Yrotation Xrotation
                          JOINT LeftHandMiddleEnd
                          {
                            OFFSET 2.323256 3e-06 -4e-06
                            CHANNELS 3 Zrotation Yrotation Xrotation
                          }
                        }
                      }
                    }
                  }
                  JOINT LeftHandRing1
                  {
                    OFFSET 2.882606 -0.309162 0.107445
                    CHANNELS 3 Zrotation Yrotation Xrotation
                    JOINT LeftHandRing2
                    {
                      OFFSET 6.033198 0.0 4e-06
                      CHANNELS 3 Zrotation Yrotation Xrotation
                      JOINT LeftHandRing3
                      {
                        OFFSET 4.350578 3e-06 0.0
                        CHANNELS 3 Zrotation Yrotation Xrotation
                        JOINT LeftHandRing4
                        {
                          OFFSET 2.651321 2e-06 -7e-06
                          CHANNELS 3 Zrotation Yrotation Xrotation
                          JOINT LeftHandRingEnd
                          {
                            OFFSET 1.937663 1e-06 -4e-06
                            CHANNELS 3 Zrotation Yrotation Xrotation
                          }
                        }
                      }
                    }
                  }
                  JOINT LeftHandPinky1
                  {
                    OFFSET 2.865315 -1.525436 0.575687
                    CHANNELS 3 Zrotation Yrotation Xrotation
                    JOINT LeftHandPinky2
                    {
                      OFFSET 5.54936 1e-06 -8e-06
                      CHANNELS 3 Zrotation Yrotation Xrotation
                      JOINT LeftHandPinky3
                      {
                        OFFSET 3.070974 0.0 -4e-06
                        CHANNELS 3 Zrotation Yrotation Xrotation
                        JOINT LeftHandPinky4
                        {
                          OFFSET 1.549672 1e-06 0.0
                          CHANNELS 3 Zrotation Yrotation Xrotation
                          JOINT LeftHandPinkyEnd
                          {
                            OFFSET 1.952123 0.0 0.0
                            CHANNELS 3 Zrotation Yrotation Xrotation
                          }
                        }
                      }
                    }
                  }
                }
              }
            }
          }
          JOINT RightShoulder
          {
            OFFSET 23.161716 5.296122 -1.380114
            CHANNELS 3 Zrotation Yrotation Xrotation
            JOINT RightArm
            {
              OFFSET -16.027195 -2e-06 1.1e-05
              CHANNELS 3 Zrotation Yrotation Xrotation
              JOINT RightForeArm
              {
                OFFSET -28.736639 4e-06 2e-06
                CHANNELS 3 Zrotation Yrotation Xrotation
                JOINT RightHand
                {
                  OFFSET -27.133619 6e-06 0.0
                  CHANNELS 3 Zrotation Yrotation Xrotation
                  JOINT RightHandThumb1
                  {
                    OFFSET -2.274328 -3.351035 -0.83067
                    CHANNELS 3 Zrotation Yrotation Xrotation
                    JOINT RightHandThumb2
                    {
                      OFFSET -4.703594 -3e-06 2e-06
                      CHANNELS 3 Zrotation Yrotation Xrotation
                      JOINT RightHandThumb3
                      {
                        OFFSET -2.794935 -4e-06 -3e-06
                        CHANNELS 3 Zrotation Yrotation Xrotation
                        JOINT RightHandThumbEnd
                        {
                          OFFSET -3.183852 4e-06 1e-06
                          CHANNELS 3 Zrotation Yrotation Xrotation
                        }
                      }
                    }
                  }
                  JOINT RightHandIndex1
                  {
                    OFFSET -3.253496 -2.33755 -0.127667
                    CHANNELS 3 Zrotation Yrotation Xrotation
                    JOINT RightHandIndex2
                    {
                      OFFSET -6.344434 0.0 0.0
                      CHANNELS 3 Zrotation Yrotation Xrotation
                      JOINT RightHandIndex3
                      {
                        OFFSET -3.654871 0.0 -8e-06
                        CHANNELS 3 Zrotation Yrotation Xrotation
                        JOINT RightHandIndex4
                        {
                          OFFSET -2.327586 -1e-06 0.0
                          CHANNELS 3 Zrotation Yrotation Xrotation
                          JOINT RightHandIndexEnd
                          {
                            OFFSET -2.770001 3e-06 8e-06
                            CHANNELS 3 Zrotation Yrotation Xrotation
                          }
                        }
                      }
                    }
                  }
                  JOINT RightHandMiddle1
                  {
                    OFFSET -3.168223 -0.944764 0.411762
                    CHANNELS 3 Zrotation Yrotation Xrotation
                    JOINT RightHandMiddle2
                    {
                      OFFSET -6.266691 -1e-06 -4e-06
                      CHANNELS 3 Zrotation Yrotation Xrotation
                      JOINT RightHandMiddle3
                      {
                        OFFSET -4.348901 0.0 0.0
                        CHANNELS 3 Zrotation Yrotation Xrotation
                        JOINT RightHandMiddle4
                        {
                          OFFSET -3.00024 2e-06 -4e-06
                          CHANNELS 3 Zrotation Yrotation Xrotation
                          JOINT RightHandMiddleEnd
                          {
                            OFFSET -2.321477 -4e-06 -4e-06
                            CHANNELS 3 Zrotation Yrotation Xrotation
                          }
                        }
                      }
                    }
                  }
                  JOINT RightHandRing1
                  {
                    OFFSET -2.885654 0.293261 -0.119232
                    CHANNELS 3 Zrotation Yrotation Xrotation
                    JOINT RightHandRing2
                    {
                      OFFSET -6.032835 -1e-06 -4e-06
                      CHANNELS 3 Zrotation Yrotation Xrotation
                      JOINT RightHandRing3
                      {
                        OFFSET -4.33881 0.0 -4e-06
                        CHANNELS 3 Zrotation Yrotation Xrotation
                        JOINT RightHandRing4
                        {
                          OFFSET -2.654903 -4e-06 -4e-06
                          CHANNELS 3 Zrotation Yrotation Xrotation
                          JOINT RightHandRingEnd
                          {
                            OFFSET -1.935122 0.0 4e-06
                            CHANNELS 3 Zrotation Yrotation Xrotation
                          }
                        }
                      }
                    }
                  }
                  JOINT RightHandPinky1
                  {
                    OFFSET -2.866241 1.503904 -0.60527
                    CHANNELS 3 Zrotation Yrotation Xrotation
                    JOINT RightHandPinky2
                    {
                      OFFSET -5.553177 -2e-06 0.0
                      CHANNELS 3 Zrotation Yrotation Xrotation
                      JOINT RightHandPinky3
                      {
                        OFFSET -3.062664 -1e-06 -4e-06
                        CHANNELS 3 Zrotation Yrotation Xrotation
                        JOINT RightHandPinky4
                        {
                          OFFSET -1.546529 2e-06 4e-06
                          CHANNELS 3 Zrotation Yrotation Xrotation
                          JOINT RightHandPinkyEnd
                          {
                            OFFSET -1.952341 0.0 -4e-06
                            CHANNELS 3 Zrotation Yrotation Xrotation
                          }
                        }
                      }
                    }
                  }
                }
              }
            }
          }
        }
      }
    }
    JOINT LeftLeg
    {
      OFFSET -8.443107 2.567604 10.043214
      CHANNELS 3 Zrotation Yrotation Xrotation
      JOINT LeftShin
      {
        OFFSET 43.229198 1e-06 -1e-06
        CHANNELS 3 Zrotation Yrotation Xrotation
        JOINT LeftFoot
        {
          OFFSET 42.298611 1e-06 1e-06
          CHANNELS 3 Zrotation Yrotation Xrotation
          JOINT LeftToeBase
          {
            OFFSET 14.165858 1e-06 0.0
            CHANNELS 3 Zrotation Yrotation Xrotation
            JOINT LeftToeEnd
            {
              OFFSET 6.7141 -0.234461 0.0
              CHANNELS 3 Zrotation Yrotation Xrotation
            }
          }
        }
      }
    }
    JOINT RightLeg
    {
      OFFSET -8.303923 2.592729 -10.047278
      CHANNELS 3 Zrotation Yrotation Xrotation
      JOINT RightShin
      {
        OFFSET -43.369682 0.0 1e-06
        CHANNELS 3 Zrotation Yrotation Xrotation
        JOINT RightFoot
        {
          OFFSET -42.260784 4e-06 2e-06
          CHANNELS 3 Zrotation Yrotation Xrotation
          JOINT RightToeBase
          {
            OFFSET -14.222245 -2e-06 -1e-06
            CHANNELS 3 Zrotation Yrotation Xrotation
            JOINT RightToeEnd
            {
              OFFSET -6.660062 0.232574 -2e-06
              CHANNELS 3 Zrotation Yrotation Xrotation
            }
          }
        }
      }
    }
  }
}
MOTION
Frames: 4
Frame Time: 0.03333333333333333
0.0 0.0 0.0 0.0 -0.0 0.0 0.060909 48.213409 6.384402 88.745132 -54.650269 89.357758 18.943565 -0.581675 -0.439396 -4.854563 -0.578282 -0.528554 14.217546 1.74823 -2.228578 31.378286 3.841309 4.434413 -2.598669 -0.849348 0.289956 -16.044025 -1.3124 -0.779431 6e-06 0.0 -0.0 -0.276153 0.03197 -0.015109 -0.342979 0.21452 -0.096658 -0.388657 -0.143501 0.065978 -21.648714 -67.933868 24.725267 76.738869 -2.658664 -20.801823 17.939745 -1.047892 -0.073774 -19.581486 68.853516 -13.196978 17.636633 -26.322729 52.411201 -19.466656 -14.395597 29.410389 2e-06 -8.774821 -2e-06 15.921515 -17.598419 6.447322 -0.609776 -1.795654 -3.889328 -4.807089 -11.046809 -2.937851 4e-06 -20.976013 -0.0 -5.019969 -25.033552 -4.031882 6e-06 1e-06 3e-06 -10.634535 -5.686973 -3.565588 10.573274 -17.922945 -3.1139 3e-06 -13.821205 1e-06 -0.501777 -31.181498 -4.027017 -12.005725 -59.559223 7.973862 -13.982716 -7.150198 -2.875042 13.772731 -8.401491 -3.21824 0.347733 -34.211544 0.771655 -0.963029 -17.733366 2.621019 -0.0 0.0 0.0 -17.346422 -20.095217 -4.201783 21.757559 -1.638375 3.866429 1e-06 -6.338822 1e-06 -1.697589 -22.591742 -6.194007 0.0 -4e-06 -1e-06 -168.394211 -72.481758 -9.810297 87.51873 2.155134 -32.458096 9.88066 -0.780697 -0.147743 -0.293951 74.310829 2.209618 22.182117 -20.375896 49.933319 -16.701813 -16.74353 28.476532 -3e-06 -12.690601 -1e-06 16.088743 -17.791933 2.491763 -0.10592 -1.513857 -4.275882 -5.039039 -5.612872 -2.953556 4e-06 -11.020528 -1e-06 -6.1113 -15.895338 -3.840471 -0.0 1e-06 -1e-06 -10.283373 -5.680288 -4.341839 11.028296 -11.302407 -2.372632 -1.384271 -14.238588 -6.320121 -0.62544 -26.924202 -3.827602 -4.255082 -49.326679 -3.948575 -13.708526 -7.363476 -3.720939 18.141148 -14.052741 -3.242674 6e-06 -18.787271 -3e-06 -0.429713 -8.456047 2.555504 0.0 1e-06 -2e-06 -15.923538 -20.094486 -5.473585 30.419214 -7.19083 1.735929 3e-06 -8.162927 -1e-06 -1.861901 -22.861473 -6.167942 -1e-06 -2e-06 0.0 121.962563 -11.294399 2.042272 110.020714 0.008357 0.442603 -52.703373 14.226794 -11.490719 -5.705815 1.322033 2.686618 -0.999999 -0.0 0.0 -54.780899 -1.356194 2.564916 103.221451 -1.195741 -0.084522 -38.375111 16.379328 -16.074125 -2.119131 0.247087 2.31269 -1.000003 0.0 0.0 
0.0 0.0 0.0 0.0 -0.0 0.0 0.17036 48.237373 6.449422 88.517807 -54.706284 89.527473 18.899723 -0.448128 -0.391409 -4.931677 -0.536127 -0.439663 14.296179 1.787211 -2.131157 31.520409 3.787787 4.306272 -2.59458 -0.841858 0.250233 -16.009926 -1.265883 -0.79926 6e-06 -0.0 -0.0 -0.275212 0.01126 -0.02467 -0.331074 0.195433 -0.10394 -0.37656 -0.164362 0.050977 -21.587492 -68.121498 24.8888 76.999245 -2.580314 -21.598091 17.848972 -0.979043 -0.040803 -17.259211 69.106033 -11.226981 17.636629 -26.322729 52.411198 -19.466665 -14.3956 29.410389 0.0 -8.774822 -2e-06 15.891269 -17.696268 6.517276 -0.609776 -1.795653 -3.889328 -4.80709 -11.046813 -2.93785 5e-06 -20.976019 -1e-06 -5.01997 -25.033556 -4.031882 4e-06 0.0 3e-06 -10.634536 -5.686969 -3.565587 10.573278 -17.922951 -3.113901 3e-06 -13.821211 1e-06 -0.501777 -31.181505 -4.027017 -11.949627 -59.727142 7.989725 -13.982716 -7.150198 -2.875041 13.772733 -8.401493 -3.218242 0.347735 -34.211555 0.771654 -0.963028 -17.733372 2.621019 -0.0 0.0 0.0 -17.346422 -20.095219 -4.201782 21.757563 -1.638373 3.866428 1e-06 -6.338825 1e-06 -1.697589 -22.591742 -6.194006 -0.0 -6e-06 -1e-06 -168.742218 -72.323311 -9.320132 87.596237 2.279775 -32.519203 9.598618 -0.655722 -0.141628 -0.327701 73.94249 1.999828 22.182116 -20.375895 49.933319 -16.701817 -16.74353 28.476534 -3e-06 -12.690605 -2e-06 16.102459 -17.703718 2.566938 -0.105919 -1.513857 -4.275883 -5.039038 -5.612872 -2.953556 5e-06 -11.020525 -2e-06 -6.111298 -15.895334 -3.840471 1e-06 1e-06 -0.0 -10.283373 -5.680291 -4.341839 11.028297 -11.302406 -2.372634 -1.38427 -14.238585 -6.320122 -0.625437 -26.924194 -3.827604 -4.1904 -49.45187 -3.79092 -13.708528 -7.363477 -3.720939 18.141155 -14.05274 -3.242675 7e-06 -18.787271 -4e-06 -0.429712 -8.456044 2.555506 -0.0 -0.0 -1e-06 -15.923538 -20.094486 -5.473585 30.419218 -7.190827 1.735924 3e-06 -8.162925 -0.0 -1.861904 -22.861473 -6.167941 -0.0 -3e-06 -0.0 121.947044 -11.255114 2.083848 109.978775 -0.002992 0.468788 -52.769646 14.126685 -11.346596 -5.677108 1.345319 2.672807 -0.999998 0.0 -1e-06 -54.745537 -1.327478 2.541907 103.06118 -1.189726 -0.074438 -38.30056 16.399763 -16.128483 -2.048121 0.220557 2.331918 -1.000006 0.0 -0.0 
0.0 0.0 0.0 0.0 -0.0 0.0 0.258366 48.260517 6.458586 88.50441 -54.680653 89.556557 18.869041 -0.365058 -0.343158 -4.99309 -0.497039 -0.351911 14.400037 1.766098 -2.083497 31.698307 3.74131 4.16635 -2.597301 -0.846759 0.220643 -16.056396 -1.241043 -0.841755 6e-06 0.0 -0.0 -0.272166 -0.01772 -0.029878 -0.386014 0.172704 -0.125114 -0.421721 -0.198744 0.056993 -21.306204 -68.245712 24.786455 77.121193 -2.504176 -21.953901 17.855494 -0.849166 -0.010339 -15.842585 69.064796 -10.187902 17.636637 -26.322729 52.411179 -19.466658 -14.395597 29.410381 -1e-06 -8.774821 -2e-06 15.896861 -17.730339 6.533812 -0.609776 -1.795653 -3.889328 -4.807089 -11.046811 -2.937849 5e-06 -20.976011 -1e-06 -5.01997 -25.033552 -4.031881 6e-06 -1e-06 1e-06 -10.634535 -5.686969 -3.565587 10.573275 -17.922949 -3.1139 3e-06 -13.821205 1e-06 -0.501777 -31.181505 -4.027015 -11.85658 -59.83881 7.961964 -13.982713 -7.150197 -2.875043 13.77273 -8.401493 -3.218241 0.347734 -34.211544 0.771654 -0.963028 -17.73337 2.62102 0.0 0.0 -0.0 -17.346418 -20.095217 -4.201782 21.757557 -1.638375 3.86643 2e-06 -6.338822 1e-06 -1.697589 -22.591745 -6.194006 -0.0 -5e-06 -2e-06 -168.678253 -72.132477 -9.236921 87.479012 2.396705 -32.575409 9.376884 -0.602231 -0.131804 -0.625308 73.833199 1.770549 22.182121 -20.375891 49.933296 -16.701809 -16.743528 28.476519 -3e-06 -12.690601 -3e-06 16.120731 -17.610516 2.623581 -0.10592 -1.513856 -4.27588 -5.039037 -5.612869 -2.953555 3e-06 -11.02052 -0.0 -6.111298 -15.895328 -3.840469 1e-06 2e-06 -0.0 -10.28337 -5.680288 -4.341836 11.028292 -11.302404 -2.372631 -1.384272 -14.238578 -6.320119 -0.62544 -26.924185 -3.827601 -4.126448 -49.514091 -3.686819 -13.708526 -7.363474 -3.720937 18.141148 -14.052739 -3.242671 6e-06 -18.787266 -2e-06 -0.429712 -8.456047 2.555504 -0.0 -0.0 -1e-06 -15.923538 -20.094482 -5.47358 30.419207 -7.190827 1.735928 3e-06 -8.162922 -0.0 -1.861902 -22.861467 -6.167941 -0.0 -4e-06 -1e-06 121.997986 -11.106458 2.073264 110.004601 -0.00384 0.490952 -53.066841 14.001 -11.29023 -5.762542 1.356702 2.656682 -0.999999 -0.0 -1e-06 -54.692509 -1.392851 2.615518 103.045647 -1.177082 -0.054896 -38.480198 16.527332 -16.177315 -2.158176 0.188916 2.347074 -1.000003 1e-06 0.0 
0.0 0.0 0.0 0.0 -0.0 0.0 0.288258 48.257851 6.3887 88.561905 -54.675438 89.562607 18.844706 -0.317901 -0.316996 -5.02954 -0.473903 -0.288218 14.45662 1.755514 -2.068366 31.828897 3.705176 4.038737 -2.597401 -0.851362 0.179871 -16.124207 -1.19295 -0.853002 6e-06 0.0 0.0 -0.27217 -0.042211 -0.032318 -0.4499 0.158581 -0.144379 -0.473344 -0.233803 0.06829 -21.109453 -68.306778 24.735044 77.220657 -2.37461 -22.192795 17.820232 -0.788951 -0.009679 -14.788492 69.04464 -9.168449 17.63662 -26.322721 52.411179 -19.466652 -14.395597 29.410385 -0.0 -8.774817 -1e-06 15.882671 -17.731634 6.550707 -0.609776 -1.795653 -3.889327 -4.807087 -11.046808 -2.937849 4e-06 -20.976006 -1e-06 -5.019969 -25.033546 -4.03188 6e-06 0.0 2e-06 -10.634531 -5.686968 -3.565587 10.573271 -17.922945 -3.113899 3e-06 -13.821202 1e-06 -0.501778 -31.181498 -4.027015 -11.812037 -59.91399 7.922465 -13.982709 -7.150195 -2.875041 13.772726 -8.401491 -3.218241 0.347732 -34.21154 0.771655 -0.963029 -17.733366 2.621019 -0.0 -0.0 -0.0 -17.346413 -20.095207 -4.20178 21.757555 -1.638377 3.866426 1e-06 -6.338822 1e-06 -1.697589 -22.591736 -6.194004 -1e-06 -5e-06 -1e-06 -168.740128 -71.912506 -9.095497 87.386948 2.450835 -32.662281 9.260721 -0.562476 -0.123687 -1.210735 73.802505 1.223539 22.182114 -20.375895 49.933319 -16.70182 -16.74353 28.476534 -3e-06 -12.6906 -0.0 16.148403 -17.554407 2.667224 -0.10592 -1.513857 -4.275882 -5.03904 -5.612871 -2.953557 5e-06 -11.020523 -3e-06 -6.111297 -15.895334 -3.840469 1e-06 1e-06 -1e-06 -10.283369 -5.680288 -4.341838 11.028295 -11.302404 -2.372634 -1.384269 -14.238581 -6.32012 -0.625436 -26.924187 -3.827603 -4.10997 -49.600437 -3.587566 -13.708524 -7.363477 -3.72094 18.141148 -14.052739 -3.242674 8e-06 -18.78727 -3e-06 -0.429712 -8.456045 2.555505 -0.0 1e-06 -2e-06 -15.923532 -20.094482 -5.473588 30.41921 -7.190826 1.735923 3e-06 -8.162922 -2e-06 -1.861901 -22.861473 -6.167942 -1e-06 -2e-06 0.0 121.93232 -10.919751 2.140799 110.149315 0.001436 0.510781 -53.463326 13.944462 -11.259569 -5.976748 1.363278 2.637827 -0.999999 0.0 -1e-06 -54.757698 -1.472952 2.688504 103.197495 -1.146062 -0.042239 -38.790802 16.618919 -16.299219 -2.355479 0.164231 2.358601 -1.000002 0.0 1e-06 
